<svg width="41" height="21" viewBox="0 0 41 21" fill="none" xmlns="http://www.w3.org/2000/svg">
<path d="M0 9C0 7.34315 1.34315 6 3 6H5V15H3C1.34315 15 0 13.6569 0 12V9Z" fill="#2D3132"/>
<path d="M36 6H38C39.6569 6 41 7.34315 41 9V12C41 13.6569 39.6569 15 38 15H36V6Z" fill="#2D3132"/>
<path d="M17 6H24V15H17V6Z" fill="#2D3132"/>
<path d="M5 3C5 1.34315 6.34315 0 8 0H14C15.6569 0 17 1.34315 17 3V18C17 19.6569 15.6569 21 14 21H8C6.34315 21 5 19.6569 5 18V3Z" fill="#2D3132"/>
<path d="M24 3C24 1.34315 25.3431 0 27 0H33C34.6569 0 36 1.34315 36 3V18C36 19.6569 34.6569 21 33 21H27C25.3431 21 24 19.6569 24 18V3Z" fill="#2D3132"/>
<path d="M0 9C0 7.34315 1.34315 6 3 6H5V15H3C1.34315 15 0 13.6569 0 12V9Z" fill="#2D3132"/>
<path d="M36 6H38C39.6569 6 41 7.34315 41 9V12C41 13.6569 39.6569 15 38 15H36V6Z" fill="#2D3132"/>
<path d="M17 6H24V15H17V6Z" fill="#2D3132"/>
<path d="M5 3C5 1.34315 6.34315 0 8 0H14C15.6569 0 17 1.34315 17 3V18C17 19.6569 15.6569 21 14 21H8C6.34315 21 5 19.6569 5 18V3Z" fill="#2D3132"/>
<path d="M24 3C24 1.34315 25.3431 0 27 0H33C34.6569 0 36 1.34315 36 3V18C36 19.6569 34.6569 21 33 21H27C25.3431 21 24 19.6569 24 18V3Z" fill="#2D3132"/>
</svg>
