<svg xmlns="http://www.w3.org/2000/svg" version="1.1" xmlns:xlink="http://www.w3.org/1999/xlink" xmlns:svgjs="http://svgjs.dev/svgjs" width="1000" height="1000"><g clip-path="url(#SvgjsClipPath1262)"><rect width="1000" height="1000" fill="#ffffff"></rect><g transform="matrix(1.5625,0,0,1.5625,100,100)"><svg xmlns="http://www.w3.org/2000/svg" version="1.1" xmlns:xlink="http://www.w3.org/1999/xlink" xmlns:svgjs="http://svgjs.dev/svgjs" width="512" height="512"><svg width="512" height="512" viewBox="0 0 512 512" fill="none" xmlns="http://www.w3.org/2000/svg">
<path d="M512 256C512 397.385 397.385 512 256 512C114.615 512 0 397.385 0 256C0 114.615 114.615 0 256 0C397.385 0 512 114.615 512 256ZM191.686 256C191.686 291.519 220.481 320.314 256 320.314C291.519 320.314 320.314 291.519 320.314 256C320.314 220.481 291.519 191.686 256 191.686C220.481 191.686 191.686 220.481 191.686 256Z" fill="#2D3132"></path>
<path d="M222.314 330.125C211.459 325.192 201.821 317.935 194.079 308.868C186.337 299.8 180.681 289.143 177.511 277.649C174.341 266.156 173.734 254.106 175.732 242.352C177.731 230.598 182.286 219.426 189.077 209.626C195.868 199.826 204.728 191.637 215.032 185.638C225.335 179.639 236.831 175.976 248.706 174.907C260.58 173.839 272.545 175.392 283.754 179.456C294.963 183.52 305.142 189.997 313.573 198.427" stroke="#252929" stroke-linecap="round"></path>
<path d="M314.103 197.897C305.595 189.389 295.321 182.853 284.009 178.751C272.697 174.65 260.623 173.082 248.638 174.16C236.654 175.238 225.053 178.935 214.654 184.99C204.256 191.044 195.314 199.309 188.461 209.199C181.607 219.089 177.01 230.364 174.993 242.226C172.976 254.089 173.589 266.249 176.788 277.849C179.988 289.448 185.695 300.204 193.509 309.355C201.322 318.506 211.049 325.829 222.004 330.807" stroke="#474C4E" stroke-width="0.5" stroke-linecap="round"></path>
<path d="M319.198 222.71C325.226 234.152 328.033 247.016 327.322 259.929C326.611 272.842 322.407 285.319 315.16 296.03C307.912 306.741 297.893 315.283 286.171 320.746C274.448 326.208 261.463 328.385 248.6 327.046" stroke="#373D3F" stroke-width="0.5" stroke-linecap="round"></path>
<path d="M487.94 221.311C495.369 270.979 486.657 321.721 463.087 366.067C439.516 410.413 402.333 446.022 357.009 467.652C311.685 489.283 260.615 495.793 211.314 486.223C162.013 476.654 117.086 451.512 83.1454 414.496C49.2046 377.48 28.0426 330.547 22.774 280.603C17.5054 230.659 28.4084 180.343 53.8785 137.061C79.3486 93.7776 118.04 59.814 164.259 40.1684C210.478 20.5227 261.783 16.2328 310.623 27.9298" stroke="#252929" stroke-width="2" stroke-linecap="round"></path>
<path d="M485.402 203.784C496.999 254.732 491.305 308.092 469.219 355.447C447.132 402.801 409.91 441.456 363.423 465.314C316.936 489.172 263.829 496.875 212.479 487.21C161.129 477.544 114.457 451.059 79.826 411.932C45.1946 372.805 24.5738 323.262 21.2161 271.118C17.8584 218.975 31.9548 167.197 61.282 123.951C90.6092 80.7054 133.498 48.4533 183.185 32.2816C232.871 16.1098 286.527 16.9387 335.69 34.6374" stroke="#474C4E" stroke-width="0.5" stroke-linecap="round"></path>
</svg></svg></g></g><defs><clipPath id="SvgjsClipPath1262"><rect width="1000" height="1000" x="0" y="0" rx="300" ry="300"></rect></clipPath></defs></svg>